<?xml version="1.0" encoding="utf-8"?>
<!-- Generator: Adobe Illustrator 19.0.0, SVG Export Plug-In . SVG Version: 6.00 Build 0)  -->
<svg version="1.1" id="Layer_1" xmlns="http://www.w3.org/2000/svg" xmlns:xlink="http://www.w3.org/1999/xlink" x="0px" y="0px"
	 viewBox="0 0 1024 765.1" style="enable-background:new 0 0 1024 765.1;" xml:space="preserve">
<style type="text/css">
	.st0{fill:#FFFFFF;}
	.st1{fill:#5DABDB;}
	.st2{fill-rule:evenodd;clip-rule:evenodd;fill:#FFFFFF;}
</style>
<g id="XMLID_56_">
	<path id="XMLID_25_" class="st0" d="M1009.1,574.5c-9.8-17.5-23.3-33-39.1-44.7v0c-3.4-2.5-5-6.8-4.1-10.9c6.2-27.5,8.9-56,8-84.7
		c-0.6-20.3-21.9-63.1-198.9-200.3C672.8,154.7,561.7,77.5,519.8,48.4c-6.3-4.4-10.8-7.5-13.4-9.3C486.1,24.8,434,15.9,376.6,17
		c-30.3,0.6-60.4,4-86.9,9.8c-30.8,6.8-56.8,16.7-77.3,29.4c-6.2,3.9-10.8,9.9-13,17c-6.8,22-30.5,99.7-52.5,177.5
		c-28.1,99.2-42.8,160.9-43.6,183.4c-0.6,15.9-0.4,40.6,3.8,68c4.4,28.1,12,52.2,22.6,71.8c1.9,3.6,1.7,7.8-0.6,11.1
		c-16.5,23.7-26,50.4-26,73.3c0,26.5,12.5,53.8,34.4,74.8c21.1,20.4,47.6,32,72.5,32c26.3,0,55-10.8,76.9-29
		c25.7-21.3,39.8-50.9,39.8-83.3c0-1.9-0.1-3.8-0.2-5.7c-0.2-2.9,0.8-5.7,2.8-7.9c2.1-2.2,5-3.5,8.1-3.4c129,1.1,319-5.4,451.6-15.5
		c3-0.2,5.8,0.8,8,2.8c2.2,2.1,3.5,4.9,3.5,8l0,0.3c0,26.5,12.5,53.8,34.4,74.8c21.1,20.4,47.6,32,72.5,32c26.3,0,55-10.8,76.9-29
		c25.7-21.3,39.8-50.9,39.8-83.3C1024,609.7,1018.8,591.9,1009.1,574.5z"/>
</g>
<g id="XMLID_16_">
	<path id="XMLID_52_" class="st1" d="M731,376.5c-9.3,49.4-28.5,153-43.9,250.3c11.3-0.6,22.5-1.2,33.4-1.9
		c20.7-129.5,42.8-243.4,43.2-245.6l2.5-13c1.9-10.2,2.1-20.6,0.4-30.9L746.5,212c-12.6-9.6-25.2-19.1-37.8-28.4l23,140.3
		C734.5,341.3,734.3,359.1,731,376.5z"/>
	<g id="XMLID_49_">
		<path id="XMLID_51_" class="st1" d="M430.9,436.9l12-63.8c2.7-14.6,2.9-29.5,0.5-44.1l-51.1-312c-5.2-0.1-10.5,0-15.8,0.1
			c-16.9,0.3-33.7,1.5-49.9,3.5l51.1,312.4c1.9,11.4,1.7,23-0.4,34.3c-9.2,48.7-31,165.5-47.4,271.5c2-1.9,4.6-2.9,7.4-2.9
			c18.6,0.2,38.4,0.2,59.2,0C417.4,504.5,430.5,439.1,430.9,436.9z"/>
		<path id="XMLID_50_" class="st1" d="M324.7,674.2c0.7-3.6,1.3-7.2,1.6-10.9C325.7,666.9,325.2,670.5,324.7,674.2z"/>
	</g>
	<path id="XMLID_30_" class="st1" d="M562.1,632.2c20.7-131,27.3-161.3,31.6-184.3l9.4-50c5.8-31.1,6.2-62.9,1.1-94.1L567.9,82
		c-20.1-14.1-36.7-25.7-48.1-33.6c-3.1-2.1-5.8-4-8-5.6l40.4,246.8c6.5,39.7,6.1,80.3-1.3,119.8c-10.6,56.9-26.1,143.3-38.8,224.3
		C528.7,633.3,545.4,632.8,562.1,632.2z"/>
</g>
<g id="XMLID_291_">
	<path id="XMLID_292_" class="st2" d="M275.3,337.8L18.1,66.3c0,0-16.5-17.3-18.3-35.9c-1-10.8-0.7-18.8,0-24.5
		c0.7-5.2,7.2-7.3,10.8-3.4l286,303.3l6.2,4.5"/>
	<path id="XMLID_294_" class="st2" d="M263.7,347.8L33.1,104.6c-2.2-2.4-6.1,0-5,3.1c2.5,6.9,4.5,15.3,4.4,24.3
		c0,4.2-0.3,7.5-0.6,10.1c-1,7.1,1.2,14.3,6.1,19.5l203.3,212.3l0.9-2.5"/>
</g>
</svg>
